<svg width="133" height="132" viewBox="0 0 133 132" fill="none" xmlns="http://www.w3.org/2000/svg">
<g clip-path="url(#clip0_4123_235)">
<path d="M43.1663 0C33.9812 0 26.5 7.48125 26.5 16.6663C26.5 24.71 32.2381 31.4481 39.8337 32.9975V56.6663C39.8337 64.0225 45.8838 70 53.1663 70H53.2881C54.1019 75.6394 58.9756 80 64.8337 80C71.2575 80 76.5 74.7575 76.5 68.3337C76.5 61.91 71.2575 56.6663 64.8337 56.6663C58.9762 56.6663 54.1025 61.0269 53.2881 66.6663H53.1663C47.7056 66.6663 43.1663 62.1963 43.1663 56.6663V39.8619C44.2449 40.9624 45.5325 41.8365 46.9535 42.4327C48.3745 43.0289 49.9002 43.3352 51.4412 43.3337H53.2881C54.1025 48.9731 58.9756 53.3337 64.8337 53.3337C70.6912 53.3337 75.5644 48.9731 76.3775 43.3337H83.2881C84.1025 48.9731 88.9756 53.3337 94.8337 53.3337C101.257 53.3337 106.5 48.09 106.5 41.6663C106.5 35.2425 101.257 30 94.8337 30C88.9756 30 84.1019 34.3606 83.2881 40H76.3781C75.565 34.3606 70.6919 30 64.8337 30C58.9756 30 54.1019 34.3606 53.2881 40H51.4412C47.4206 40 44.0706 37.1319 43.3237 33.33C52.4362 33.245 59.8337 25.7988 59.8337 16.6663C59.8337 7.48125 52.3512 0 43.1663 0ZM43.1663 3.33375C44.9181 3.33029 46.6535 3.67278 48.2727 4.34156C49.8919 5.01034 51.3631 5.99225 52.6019 7.23096C53.8407 8.46967 54.8228 9.9408 55.4917 11.5599C56.1606 13.1791 56.5033 14.9144 56.5 16.6663C56.5033 18.4182 56.1607 20.1535 55.4917 21.7727C54.8228 23.392 53.8408 24.8632 52.602 26.102C51.3632 27.3408 49.892 28.3228 48.2727 28.9917C46.6535 29.6607 44.9182 30.0033 43.1663 30C41.4144 30.0033 39.6791 29.6606 38.0599 28.9917C36.4408 28.3228 34.9697 27.3407 33.731 26.1019C32.4922 24.8631 31.5103 23.3919 30.8416 21.7727C30.1728 20.1535 29.8303 18.4181 29.8338 16.6663C29.8303 14.9144 30.1728 13.1792 30.8416 11.56C31.5104 9.9409 32.4923 8.46976 33.731 7.23103C34.9698 5.99231 36.4409 5.01038 38.06 4.34158C39.6792 3.67278 41.4144 3.33029 43.1663 3.33375ZM39.9069 8.04688C38.1688 8.05562 36.5 9.45188 36.5 11.3538V22.0056C36.5 24.5325 39.4431 26.17 41.5906 24.8388L50.1119 19.5544C52.1475 18.2919 52.1581 15.1781 50.1319 13.9013L41.61 8.5325C41.1006 8.21056 40.5094 8.04198 39.9069 8.04688ZM39.8337 11.3538L48.3556 16.7213L39.8337 22.0056V11.3538ZM64.8337 33.3337C65.929 33.3303 67.014 33.5434 68.0266 33.961C69.0391 34.3785 69.959 34.9921 70.7334 35.7666C71.5079 36.541 72.1215 37.4609 72.539 38.4734C72.9566 39.486 73.1697 40.571 73.1663 41.6663C73.1696 42.7615 72.9564 43.8466 72.5389 44.8591C72.1214 45.8717 71.5077 46.7917 70.7333 47.5662C69.9589 48.3407 69.039 48.9545 68.0266 49.3722C67.0141 49.7898 65.929 50.0032 64.8337 50C63.7384 50.0033 62.6532 49.79 61.6407 49.3724C60.6281 48.9547 59.7081 48.341 58.9335 47.5665C58.159 46.7919 57.5453 45.8719 57.1276 44.8593C56.71 43.8467 56.4967 42.7616 56.5 41.6663C56.4968 40.571 56.7102 39.4859 57.1278 38.4734C57.5455 37.461 58.1593 36.5411 58.9338 35.7667C59.7083 34.9923 60.6283 34.3786 61.6409 33.9611C62.6534 33.5436 63.7385 33.3304 64.8337 33.3337ZM94.8337 33.3337C95.929 33.3303 97.014 33.5434 98.0266 33.961C99.0391 34.3785 99.959 34.9921 100.733 35.7666C101.508 36.541 102.122 37.4609 102.539 38.4734C102.957 39.486 103.17 40.571 103.166 41.6663C103.17 42.7615 102.956 43.8466 102.539 44.8591C102.121 45.8717 101.508 46.7917 100.733 47.5662C99.9589 48.3407 99.039 48.9545 98.0266 49.3722C97.0141 49.7898 95.929 50.0032 94.8337 50C93.7384 50.0033 92.6533 49.79 91.6407 49.3724C90.6281 48.9547 89.7081 48.341 88.9335 47.5665C88.159 46.7919 87.5453 45.8719 87.1276 44.8593C86.71 43.8467 86.4967 42.7616 86.5 41.6663C86.4968 40.571 86.7102 39.4859 87.1278 38.4734C87.5455 37.461 88.1593 36.5411 88.9338 35.7667C89.7083 34.9923 90.6283 34.3786 91.6409 33.9611C92.6534 33.5436 93.7385 33.3304 94.8337 33.3337ZM68.2287 37.6781C68.0098 37.6779 67.7929 37.7209 67.5906 37.8045C67.3882 37.8882 67.2043 38.0109 67.0494 38.1656L63.1119 42.0994L61.8037 40.7969C61.4907 40.4849 61.0665 40.3101 60.6245 40.3108C60.1826 40.3115 59.759 40.4877 59.4469 40.8006C59.2924 40.9557 59.17 41.1398 59.0866 41.3422C59.0033 41.5446 58.9606 41.7615 58.9611 41.9804C58.9615 42.1993 59.0051 42.416 59.0893 42.6181C59.1735 42.8202 59.2967 43.0037 59.4519 43.1581L61.9356 45.6331C62.2482 45.9446 62.6714 46.1194 63.1126 46.1192C63.5538 46.1191 63.977 45.9441 64.2894 45.6325L69.405 40.5238C69.5599 40.369 69.6828 40.1853 69.7667 39.9831C69.8506 39.7809 69.8938 39.5642 69.8939 39.3453C69.894 39.1263 69.851 38.9095 69.7674 38.7072C69.6837 38.5049 69.561 38.3211 69.4062 38.1663C69.0938 37.8542 68.6703 37.6782 68.2287 37.6781ZM98.2288 37.6781C98.0098 37.6779 97.7929 37.7209 97.5906 37.8045C97.3882 37.8882 97.2043 38.0109 97.0494 38.1656L93.1119 42.0994L91.8037 40.7969C91.4907 40.4849 91.0665 40.3101 90.6245 40.3108C90.1826 40.3115 89.759 40.4877 89.4469 40.8006C89.2924 40.9557 89.17 41.1398 89.0866 41.3422C89.0033 41.5446 88.9606 41.7615 88.9611 41.9804C88.9615 42.1993 89.0051 42.416 89.0893 42.6181C89.1735 42.8202 89.2967 43.0037 89.4519 43.1581L91.9356 45.6331C92.2482 45.9446 92.6714 46.1194 93.1126 46.1192C93.5538 46.1191 93.977 45.9441 94.2894 45.6325L99.405 40.5238C99.5599 40.369 99.6828 40.1853 99.7667 39.9831C99.8506 39.7809 99.8938 39.5642 99.8939 39.3453C99.894 39.1263 99.851 38.9095 99.7674 38.7072C99.6837 38.5049 99.561 38.3211 99.4062 38.1663C99.0938 37.8542 98.6703 37.6782 98.2288 37.6781ZM64.8337 60C65.929 59.9968 67.0141 60.2102 68.0266 60.6278C69.039 61.0455 69.9589 61.6593 70.7333 62.4338C71.5077 63.2083 72.1214 64.1283 72.5389 65.1409C72.9564 66.1534 73.1696 67.2385 73.1663 68.3337C73.1697 69.429 72.9566 70.514 72.539 71.5266C72.1215 72.5391 71.5079 73.459 70.7334 74.2334C69.959 75.0079 69.0391 75.6215 68.0266 76.039C67.014 76.4566 65.929 76.6697 64.8337 76.6663C63.7385 76.6696 62.6534 76.4564 61.6409 76.0389C60.6283 75.6214 59.7083 75.0077 58.9338 74.2333C58.1593 73.4589 57.5455 72.539 57.1278 71.5266C56.7102 70.5141 56.4968 69.429 56.5 68.3337C56.4967 67.2384 56.71 66.1533 57.1276 65.1407C57.5453 64.1281 58.159 63.2081 58.9335 62.4335C59.7081 61.659 60.6281 61.0453 61.6407 60.6276C62.6532 60.21 63.7384 59.9967 64.8337 60ZM61.5 65.8337C60.1294 65.8337 59 66.9631 59 68.3337C59 69.7056 60.13 70.8337 61.5 70.8337C62.87 70.8337 64 69.7056 64 68.3337C64 66.9631 62.8706 65.8337 61.5 65.8337ZM68.1663 65.8337C66.7956 65.8337 65.6663 66.9631 65.6663 68.3337C65.6663 69.7056 66.7963 70.8337 68.1663 70.8337C69.5363 70.8337 70.6663 69.7056 70.6663 68.3337C70.6663 66.9631 69.5369 65.8337 68.1663 65.8337ZM61.5 67.5C61.9688 67.5 62.3337 67.8656 62.3337 68.3337C62.3337 68.8044 61.9694 69.1663 61.5 69.1663C61.0312 69.1663 60.6663 68.8037 60.6663 68.3337C60.6663 67.865 61.0319 67.5 61.5 67.5ZM68.1663 67.5C68.635 67.5 69 67.8656 69 68.3337C69 68.8044 68.6356 69.1663 68.1663 69.1663C67.6975 69.1663 67.3337 68.8037 67.3337 68.3337C67.3337 67.865 67.6981 67.5 68.1663 67.5Z" fill="#2088FF"/>
<path d="M94.8337 56.666C88.9693 56.666 84.0912 61.0366 83.2855 66.6854C83.2305 66.6804 83.1752 66.6781 83.1199 66.6785L81.4324 66.7348C80.9908 66.7493 80.573 66.9385 80.2709 67.2609C79.9688 67.5834 79.807 68.0125 79.8212 68.4541C79.8357 68.8959 80.025 69.3137 80.3476 69.6159C80.6701 69.918 81.0994 70.0797 81.5412 70.0654L83.2287 70.011C83.2489 70.0101 83.2691 70.0089 83.2893 70.0073C84.1062 75.6429 88.978 79.9998 94.8337 79.9998C101.257 79.9998 106.5 74.7573 106.5 68.3335C106.5 61.9098 101.257 56.666 94.8337 56.666ZM94.8337 59.9998C95.9289 59.9965 97.014 60.2099 98.0265 60.6276C99.0389 61.0453 99.9589 61.659 100.733 62.4336C101.508 63.2081 102.121 64.1281 102.539 65.1406C102.956 66.1532 103.17 67.2383 103.166 68.3335C103.17 69.4287 102.956 70.5138 102.539 71.5263C102.121 72.5388 101.508 73.4588 100.733 74.2332C99.9589 75.0076 99.039 75.6213 98.0265 76.0388C97.014 76.4563 95.9289 76.6695 94.8337 76.666C93.7384 76.6694 92.6533 76.4562 91.6408 76.0387C90.6282 75.6211 89.7082 75.0075 88.9337 74.2331C88.1592 73.4587 87.5454 72.5388 87.1278 71.5263C86.7101 70.5138 86.4967 69.4288 86.4999 68.3335C86.4966 67.2382 86.7099 66.153 87.1276 65.1404C87.5452 64.1278 88.1589 63.2078 88.9335 62.4333C89.708 61.6588 90.628 61.0451 91.6406 60.6274C92.6532 60.2098 93.7383 59.9965 94.8337 59.9998Z" fill="#79B8FF"/>
</g>
<path d="M29.7302 94.228C29.9342 94.336 30.0482 94.498 30.0722 94.714C30.1082 94.93 30.0542 95.128 29.9102 95.308C29.8022 95.464 29.6642 95.548 29.4962 95.56C29.3282 95.572 29.1602 95.536 28.9922 95.452C28.5962 95.212 28.1702 95.026 27.7142 94.894C27.2582 94.75 26.7782 94.678 26.2742 94.678C25.5662 94.678 24.9182 94.804 24.3302 95.056C23.7422 95.296 23.2322 95.638 22.8002 96.082C22.3682 96.526 22.0322 97.054 21.7922 97.666C21.5522 98.278 21.4322 98.956 21.4322 99.7C21.4322 100.492 21.5582 101.2 21.8102 101.824C22.0622 102.448 22.4042 102.982 22.8362 103.426C23.2802 103.858 23.7902 104.188 24.3662 104.416C24.9542 104.644 25.5902 104.758 26.2742 104.758C26.7662 104.758 27.2402 104.692 27.6962 104.56C28.1522 104.428 28.5842 104.236 28.9922 103.984C29.1602 103.9 29.3282 103.87 29.4962 103.894C29.6642 103.918 29.8082 104.002 29.9282 104.146C30.0722 104.338 30.1262 104.542 30.0902 104.758C30.0542 104.962 29.9402 105.112 29.7482 105.208C29.4482 105.388 29.1062 105.556 28.7222 105.712C28.3382 105.856 27.9362 105.97 27.5162 106.054C27.1082 106.138 26.6942 106.18 26.2742 106.18C25.4102 106.18 24.5942 106.03 23.8262 105.73C23.0582 105.43 22.3802 104.998 21.7922 104.434C21.2042 103.87 20.7362 103.192 20.3882 102.4C20.0522 101.596 19.8842 100.696 19.8842 99.7C19.8842 98.764 20.0462 97.906 20.3702 97.126C20.6942 96.346 21.1442 95.668 21.7202 95.092C22.3082 94.516 22.9862 94.066 23.7542 93.742C24.5342 93.418 25.3742 93.256 26.2742 93.256C26.8982 93.256 27.5042 93.34 28.0922 93.508C28.6922 93.676 29.2382 93.916 29.7302 94.228ZM33.7538 105.262C33.7538 105.466 33.6758 105.64 33.5198 105.784C33.3758 105.928 33.2018 106 32.9978 106C32.7698 106 32.5898 105.928 32.4578 105.784C32.3258 105.64 32.2598 105.466 32.2598 105.262V94.138C32.2598 93.922 32.3318 93.748 32.4758 93.616C32.6198 93.472 32.7998 93.4 33.0158 93.4C33.2198 93.4 33.3938 93.472 33.5378 93.616C33.6818 93.748 33.7538 93.922 33.7538 94.138V105.262ZM36.27 108.358C36.114 108.358 35.964 108.292 35.82 108.16C35.688 108.04 35.622 107.89 35.622 107.71C35.622 107.602 35.646 107.494 35.694 107.386L43.362 92.068C43.446 91.9 43.542 91.78 43.65 91.708C43.758 91.636 43.878 91.6 44.01 91.6C44.154 91.6 44.292 91.66 44.424 91.78C44.568 91.888 44.64 92.038 44.64 92.23C44.64 92.35 44.61 92.47 44.55 92.59L36.9 107.908C36.828 108.064 36.738 108.178 36.63 108.25C36.522 108.322 36.402 108.358 36.27 108.358ZM55.6755 94.228C55.8795 94.336 55.9935 94.498 56.0175 94.714C56.0535 94.93 55.9995 95.128 55.8555 95.308C55.7475 95.464 55.6095 95.548 55.4415 95.56C55.2735 95.572 55.1055 95.536 54.9375 95.452C54.5415 95.212 54.1155 95.026 53.6595 94.894C53.2035 94.75 52.7235 94.678 52.2195 94.678C51.5115 94.678 50.8635 94.804 50.2755 95.056C49.6875 95.296 49.1775 95.638 48.7455 96.082C48.3135 96.526 47.9775 97.054 47.7375 97.666C47.4975 98.278 47.3775 98.956 47.3775 99.7C47.3775 100.492 47.5035 101.2 47.7555 101.824C48.0075 102.448 48.3495 102.982 48.7815 103.426C49.2255 103.858 49.7355 104.188 50.3115 104.416C50.8995 104.644 51.5355 104.758 52.2195 104.758C52.7115 104.758 53.1855 104.692 53.6415 104.56C54.0975 104.428 54.5295 104.236 54.9375 103.984C55.1055 103.9 55.2735 103.87 55.4415 103.894C55.6095 103.918 55.7535 104.002 55.8735 104.146C56.0175 104.338 56.0715 104.542 56.0355 104.758C55.9995 104.962 55.8855 105.112 55.6935 105.208C55.3935 105.388 55.0515 105.556 54.6675 105.712C54.2835 105.856 53.8815 105.97 53.4615 106.054C53.0535 106.138 52.6395 106.18 52.2195 106.18C51.3555 106.18 50.5395 106.03 49.7715 105.73C49.0035 105.43 48.3255 104.998 47.7375 104.434C47.1495 103.87 46.6815 103.192 46.3335 102.4C45.9975 101.596 45.8295 100.696 45.8295 99.7C45.8295 98.764 45.9915 97.906 46.3155 97.126C46.6395 96.346 47.0895 95.668 47.6655 95.092C48.2535 94.516 48.9315 94.066 49.6995 93.742C50.4795 93.418 51.3195 93.256 52.2195 93.256C52.8435 93.256 53.4495 93.34 54.0375 93.508C54.6375 93.676 55.1835 93.916 55.6755 94.228ZM63.4251 93.4C64.3011 93.4 65.0691 93.568 65.7291 93.904C66.4011 94.228 66.9591 94.684 67.4031 95.272C67.8471 95.86 68.1771 96.538 68.3931 97.306C68.6211 98.062 68.7351 98.86 68.7351 99.7C68.7351 100.852 68.5371 101.908 68.1411 102.868C67.7451 103.816 67.1571 104.578 66.3771 105.154C65.5971 105.718 64.6131 106 63.4251 106H58.9251C58.7211 106 58.5471 105.928 58.4031 105.784C58.2711 105.64 58.2051 105.466 58.2051 105.262V94.12C58.2051 93.916 58.2711 93.748 58.4031 93.616C58.5471 93.472 58.7211 93.4 58.9251 93.4H63.4251ZM63.2451 104.596C64.1691 104.596 64.9191 104.374 65.4951 103.93C66.0831 103.486 66.5091 102.892 66.7731 102.148C67.0491 101.404 67.1871 100.588 67.1871 99.7C67.1871 99.052 67.1091 98.434 66.9531 97.846C66.8091 97.246 66.5751 96.718 66.2511 96.262C65.9391 95.806 65.5311 95.446 65.0271 95.182C64.5351 94.918 63.9411 94.786 63.2451 94.786H59.5551L59.6991 94.642V104.776L59.5911 104.596H63.2451ZM86.81 96.532C87.002 96.532 87.164 96.598 87.296 96.73C87.44 96.862 87.512 97.036 87.512 97.252C87.512 97.3 87.506 97.354 87.494 97.414C87.494 97.462 87.482 97.51 87.458 97.558L84.686 105.532C84.626 105.688 84.524 105.808 84.38 105.892C84.248 105.976 84.104 106.012 83.948 106C83.672 105.988 83.462 105.832 83.318 105.532L81.05 99.844L81.41 99.898L79.358 105.532C79.226 105.832 79.016 105.988 78.728 106C78.572 106.012 78.422 105.976 78.278 105.892C78.134 105.808 78.038 105.688 77.99 105.532L75.164 97.558C75.128 97.45 75.11 97.348 75.11 97.252C75.11 97.06 75.176 96.892 75.308 96.748C75.44 96.604 75.62 96.532 75.848 96.532C75.992 96.532 76.124 96.568 76.244 96.64C76.364 96.712 76.448 96.826 76.496 96.982L78.926 104.074L78.548 104.056L80.654 98.656C80.774 98.356 80.996 98.206 81.32 98.206C81.488 98.206 81.62 98.248 81.716 98.332C81.824 98.404 81.902 98.512 81.95 98.656L84.146 104.056L83.696 104.092L86.126 96.982C86.234 96.682 86.462 96.532 86.81 96.532ZM90.8391 105.262C90.8391 105.466 90.7671 105.64 90.6231 105.784C90.4911 105.928 90.3231 106 90.1191 106C89.9031 106 89.7291 105.928 89.5971 105.784C89.4651 105.64 89.3991 105.466 89.3991 105.262V97.27C89.3991 97.066 89.4651 96.898 89.5971 96.766C89.7411 96.622 89.9151 96.55 90.1191 96.55C90.3231 96.55 90.4911 96.622 90.6231 96.766C90.7671 96.898 90.8391 97.066 90.8391 97.27V105.262ZM90.1191 95.344C89.8191 95.344 89.5971 95.284 89.4531 95.164C89.3091 95.044 89.2371 94.858 89.2371 94.606V94.354C89.2371 94.102 89.3151 93.916 89.4711 93.796C89.6271 93.676 89.8491 93.616 90.1371 93.616C90.4251 93.616 90.6411 93.676 90.7851 93.796C90.9291 93.916 91.0011 94.102 91.0011 94.354V94.606C91.0011 94.858 90.9231 95.044 90.7671 95.164C90.6231 95.284 90.4071 95.344 90.1191 95.344ZM93.0658 96.748H97.2958C97.4878 96.748 97.6438 96.814 97.7638 96.946C97.8958 97.078 97.9618 97.234 97.9618 97.414C97.9618 97.606 97.8958 97.768 97.7638 97.9C97.6438 98.02 97.4878 98.08 97.2958 98.08H93.0658C92.8858 98.08 92.7298 98.014 92.5978 97.882C92.4658 97.75 92.3998 97.588 92.3998 97.396C92.3998 97.216 92.4658 97.066 92.5978 96.946C92.7298 96.814 92.8858 96.748 93.0658 96.748ZM94.9558 94.3C95.1598 94.3 95.3278 94.372 95.4598 94.516C95.5918 94.648 95.6578 94.816 95.6578 95.02V103.714C95.6578 104.002 95.6998 104.218 95.7838 104.362C95.8678 104.506 95.9758 104.608 96.1078 104.668C96.2518 104.716 96.3898 104.74 96.5218 104.74C96.6418 104.74 96.7438 104.722 96.8278 104.686C96.9238 104.638 97.0318 104.614 97.1518 104.614C97.2718 104.614 97.3798 104.674 97.4758 104.794C97.5838 104.902 97.6378 105.046 97.6378 105.226C97.6378 105.442 97.5118 105.628 97.2598 105.784C97.0078 105.928 96.7258 106 96.4138 106C96.2458 106 96.0358 105.988 95.7838 105.964C95.5438 105.94 95.3038 105.862 95.0638 105.73C94.8238 105.598 94.6198 105.382 94.4518 105.082C94.2958 104.77 94.2178 104.338 94.2178 103.786V95.02C94.2178 94.816 94.2898 94.648 94.4338 94.516C94.5778 94.372 94.7518 94.3 94.9558 94.3ZM104.465 96.55C105.257 96.55 105.881 96.724 106.337 97.072C106.805 97.408 107.135 97.864 107.327 98.44C107.531 99.004 107.633 99.634 107.633 100.33V105.262C107.633 105.466 107.561 105.64 107.417 105.784C107.285 105.928 107.117 106 106.913 106C106.709 106 106.535 105.928 106.391 105.784C106.259 105.64 106.193 105.466 106.193 105.262V100.33C106.193 99.874 106.127 99.466 105.995 99.106C105.863 98.734 105.641 98.44 105.329 98.224C105.029 97.996 104.615 97.882 104.087 97.882C103.595 97.882 103.145 97.996 102.737 98.224C102.329 98.44 102.005 98.734 101.765 99.106C101.525 99.466 101.405 99.874 101.405 100.33V105.262C101.405 105.466 101.333 105.64 101.189 105.784C101.057 105.928 100.889 106 100.685 106C100.481 106 100.307 105.928 100.163 105.784C100.031 105.64 99.9648 105.466 99.9648 105.262V93.4C99.9648 93.196 100.031 93.028 100.163 92.896C100.307 92.752 100.481 92.68 100.685 92.68C100.901 92.68 101.075 92.752 101.207 92.896C101.339 93.028 101.405 93.196 101.405 93.4V98.782L101.045 99.178C101.105 98.866 101.237 98.554 101.441 98.242C101.645 97.918 101.903 97.63 102.215 97.378C102.527 97.126 102.875 96.928 103.259 96.784C103.643 96.628 104.045 96.55 104.465 96.55ZM11.9158 128.18C10.9918 128.18 10.1338 128.018 9.34184 127.694C8.56184 127.358 7.87184 126.896 7.27184 126.308C6.68384 125.72 6.22184 125.036 5.88584 124.256C5.56184 123.464 5.39984 122.612 5.39984 121.7C5.39984 120.776 5.56184 119.924 5.88584 119.144C6.22184 118.352 6.68384 117.662 7.27184 117.074C7.87184 116.486 8.56184 116.03 9.34184 115.706C10.1338 115.382 10.9918 115.22 11.9158 115.22C12.5278 115.22 13.1158 115.292 13.6798 115.436C14.2558 115.568 14.7778 115.778 15.2458 116.066C15.3658 116.126 15.4498 116.21 15.4978 116.318C15.5578 116.426 15.5878 116.54 15.5878 116.66C15.5878 116.864 15.5158 117.038 15.3718 117.182C15.2398 117.326 15.0838 117.398 14.9038 117.398C14.8318 117.398 14.7598 117.386 14.6878 117.362C14.6278 117.338 14.5618 117.314 14.4898 117.29C14.1178 117.098 13.7158 116.948 13.2838 116.84C12.8518 116.72 12.3958 116.66 11.9158 116.66C10.9678 116.66 10.1158 116.882 9.35984 117.326C8.61584 117.77 8.02784 118.37 7.59584 119.126C7.16384 119.882 6.94784 120.74 6.94784 121.7C6.94784 122.648 7.16384 123.506 7.59584 124.274C8.02784 125.03 8.61584 125.63 9.35984 126.074C10.1158 126.518 10.9678 126.74 11.9158 126.74C12.3958 126.74 12.8878 126.674 13.3918 126.542C13.9078 126.41 14.3458 126.242 14.7058 126.038L14.5798 126.47V122.672L14.8678 122.924H12.1138C11.9098 122.924 11.7358 122.858 11.5918 122.726C11.4598 122.582 11.3938 122.408 11.3938 122.204C11.3938 122 11.4598 121.832 11.5918 121.7C11.7358 121.556 11.9098 121.484 12.1138 121.484H15.3898C15.6058 121.484 15.7798 121.556 15.9118 121.7C16.0438 121.844 16.1098 122.018 16.1098 122.222V126.38C16.1098 126.524 16.0738 126.65 16.0018 126.758C15.9418 126.866 15.8578 126.956 15.7498 127.028C15.2098 127.376 14.6098 127.658 13.9498 127.874C13.3018 128.078 12.6238 128.18 11.9158 128.18ZM19.8235 127.262C19.8235 127.466 19.7515 127.64 19.6075 127.784C19.4755 127.928 19.3075 128 19.1035 128C18.8875 128 18.7135 127.928 18.5815 127.784C18.4495 127.64 18.3835 127.466 18.3835 127.262V119.27C18.3835 119.066 18.4495 118.898 18.5815 118.766C18.7255 118.622 18.8995 118.55 19.1035 118.55C19.3075 118.55 19.4755 118.622 19.6075 118.766C19.7515 118.898 19.8235 119.066 19.8235 119.27V127.262ZM19.1035 117.344C18.8035 117.344 18.5815 117.284 18.4375 117.164C18.2935 117.044 18.2215 116.858 18.2215 116.606V116.354C18.2215 116.102 18.2995 115.916 18.4555 115.796C18.6115 115.676 18.8335 115.616 19.1215 115.616C19.4095 115.616 19.6255 115.676 19.7695 115.796C19.9135 115.916 19.9855 116.102 19.9855 116.354V116.606C19.9855 116.858 19.9075 117.044 19.7515 117.164C19.6075 117.284 19.3915 117.344 19.1035 117.344ZM22.0501 118.748H26.2801C26.4721 118.748 26.6281 118.814 26.7481 118.946C26.8801 119.078 26.9461 119.234 26.9461 119.414C26.9461 119.606 26.8801 119.768 26.7481 119.9C26.6281 120.02 26.4721 120.08 26.2801 120.08H22.0501C21.8701 120.08 21.7141 120.014 21.5821 119.882C21.4501 119.75 21.3841 119.588 21.3841 119.396C21.3841 119.216 21.4501 119.066 21.5821 118.946C21.7141 118.814 21.8701 118.748 22.0501 118.748ZM23.9401 116.3C24.1441 116.3 24.3121 116.372 24.4441 116.516C24.5761 116.648 24.6421 116.816 24.6421 117.02V125.714C24.6421 126.002 24.6841 126.218 24.7681 126.362C24.8521 126.506 24.9601 126.608 25.0921 126.668C25.2361 126.716 25.3741 126.74 25.5061 126.74C25.6261 126.74 25.7281 126.722 25.8121 126.686C25.9081 126.638 26.0161 126.614 26.1361 126.614C26.2561 126.614 26.3641 126.674 26.4601 126.794C26.5681 126.902 26.6221 127.046 26.6221 127.226C26.6221 127.442 26.4961 127.628 26.2441 127.784C25.9921 127.928 25.7101 128 25.3981 128C25.2301 128 25.0201 127.988 24.7681 127.964C24.5281 127.94 24.2881 127.862 24.0481 127.73C23.8081 127.598 23.6041 127.382 23.4361 127.082C23.2801 126.77 23.2021 126.338 23.2021 125.786V117.02C23.2021 116.816 23.2741 116.648 23.4181 116.516C23.5621 116.372 23.7361 116.3 23.9401 116.3ZM29.9572 115.4C30.1612 115.4 30.3352 115.472 30.4792 115.616C30.6232 115.748 30.6952 115.922 30.6952 116.138V127.262C30.6952 127.466 30.6172 127.64 30.4612 127.784C30.3172 127.928 30.1432 128 29.9392 128C29.7112 128 29.5312 127.928 29.3992 127.784C29.2672 127.64 29.2012 127.466 29.2012 127.262V116.138C29.2012 115.922 29.2732 115.748 29.4172 115.616C29.5612 115.472 29.7412 115.4 29.9572 115.4ZM38.2552 115.4C38.4712 115.4 38.6452 115.472 38.7772 115.616C38.9212 115.748 38.9932 115.922 38.9932 116.138V127.262C38.9932 127.466 38.9212 127.64 38.7772 127.784C38.6332 127.928 38.4532 128 38.2372 128C38.0332 128 37.8592 127.928 37.7152 127.784C37.5712 127.64 37.4992 127.466 37.4992 127.262V116.138C37.4992 115.922 37.5712 115.748 37.7152 115.616C37.8712 115.472 38.0512 115.4 38.2552 115.4ZM29.8852 120.89H38.2732L38.2552 122.294H29.8312L29.8852 120.89ZM48.8703 118.694C49.0863 118.694 49.2603 118.766 49.3923 118.91C49.5243 119.042 49.5903 119.21 49.5903 119.414V124.328C49.5903 125.54 49.2483 126.482 48.5643 127.154C47.8923 127.814 46.9503 128.144 45.7383 128.144C44.5383 128.144 43.5963 127.814 42.9123 127.154C42.2403 126.482 41.9043 125.54 41.9043 124.328V119.414C41.9043 119.21 41.9703 119.042 42.1023 118.91C42.2463 118.766 42.4203 118.694 42.6243 118.694C42.8403 118.694 43.0143 118.766 43.1463 118.91C43.2783 119.042 43.3443 119.21 43.3443 119.414V124.328C43.3443 125.144 43.5543 125.762 43.9743 126.182C44.3943 126.602 44.9823 126.812 45.7383 126.812C46.5183 126.812 47.1123 126.602 47.5203 126.182C47.9403 125.762 48.1503 125.144 48.1503 124.328V119.414C48.1503 119.21 48.2163 119.042 48.3483 118.91C48.4923 118.766 48.6663 118.694 48.8703 118.694ZM56.8478 118.46C57.6638 118.46 58.3958 118.67 59.0438 119.09C59.6918 119.498 60.2018 120.062 60.5738 120.782C60.9578 121.502 61.1498 122.336 61.1498 123.284C61.1498 124.232 60.9578 125.072 60.5738 125.804C60.2018 126.536 59.6918 127.118 59.0438 127.55C58.4078 127.97 57.6878 128.18 56.8838 128.18C56.4398 128.18 56.0198 128.114 55.6238 127.982C55.2398 127.838 54.8858 127.652 54.5618 127.424C54.2498 127.184 53.9858 126.926 53.7698 126.65C53.5538 126.362 53.3978 126.08 53.3018 125.804L53.6978 125.552V127.352C53.6978 127.556 53.6318 127.73 53.4998 127.874C53.3678 128.018 53.1938 128.09 52.9778 128.09C52.7738 128.09 52.5998 128.024 52.4558 127.892C52.3238 127.748 52.2578 127.568 52.2578 127.352V115.418C52.2578 115.214 52.3238 115.04 52.4558 114.896C52.5998 114.752 52.7738 114.68 52.9778 114.68C53.1938 114.68 53.3678 114.752 53.4998 114.896C53.6318 115.04 53.6978 115.214 53.6978 115.418V120.962L53.4278 120.818C53.5118 120.518 53.6558 120.23 53.8598 119.954C54.0758 119.666 54.3338 119.414 54.6338 119.198C54.9458 118.97 55.2878 118.79 55.6598 118.658C56.0438 118.526 56.4398 118.46 56.8478 118.46ZM56.6858 119.792C56.0858 119.792 55.5518 119.942 55.0838 120.242C54.6278 120.542 54.2678 120.956 54.0038 121.484C53.7518 122.012 53.6258 122.612 53.6258 123.284C53.6258 123.956 53.7518 124.562 54.0038 125.102C54.2678 125.642 54.6278 126.068 55.0838 126.38C55.5518 126.692 56.0858 126.848 56.6858 126.848C57.2858 126.848 57.8138 126.692 58.2698 126.38C58.7258 126.068 59.0858 125.642 59.3498 125.102C59.6138 124.562 59.7458 123.956 59.7458 123.284C59.7458 122.612 59.6138 122.012 59.3498 121.484C59.0858 120.956 58.7258 120.542 58.2698 120.242C57.8138 119.942 57.2858 119.792 56.6858 119.792ZM72.8795 117.272L68.6495 127.568C68.6015 127.712 68.5175 127.826 68.3975 127.91C68.2775 127.994 68.1515 128.036 68.0195 128.036C67.7915 128.036 67.6235 127.976 67.5155 127.856C67.4075 127.736 67.3535 127.592 67.3535 127.424C67.3415 127.34 67.3535 127.25 67.3895 127.154L72.0515 115.814C72.1115 115.646 72.2015 115.526 72.3215 115.454C72.4535 115.37 72.5975 115.334 72.7535 115.346C72.9095 115.346 73.0475 115.388 73.1675 115.472C73.2995 115.556 73.3895 115.67 73.4375 115.814L78.0815 127.046C78.1175 127.142 78.1355 127.238 78.1355 127.334C78.1355 127.55 78.0635 127.724 77.9195 127.856C77.7755 127.976 77.6135 128.036 77.4335 128.036C77.2895 128.036 77.1575 127.994 77.0375 127.91C76.9175 127.826 76.8275 127.706 76.7675 127.55L72.4835 117.254L72.8795 117.272ZM69.5495 124.634L70.1615 123.23H75.5075L75.7775 124.634H69.5495ZM83.9954 118.46C84.6074 118.46 85.1594 118.526 85.6514 118.658C86.1434 118.79 86.5334 118.97 86.8214 119.198C87.1094 119.426 87.2534 119.684 87.2534 119.972C87.2534 120.128 87.1994 120.278 87.0914 120.422C86.9834 120.566 86.8394 120.638 86.6594 120.638C86.4914 120.638 86.3534 120.608 86.2454 120.548C86.1494 120.488 86.0534 120.41 85.9574 120.314C85.8734 120.218 85.7534 120.134 85.5974 120.062C85.4534 119.978 85.2434 119.912 84.9674 119.864C84.6914 119.816 84.4154 119.792 84.1394 119.792C83.4794 119.792 82.8974 119.948 82.3934 120.26C81.9014 120.572 81.5114 120.992 81.2234 121.52C80.9354 122.048 80.7914 122.648 80.7914 123.32C80.7914 123.992 80.9294 124.592 81.2054 125.12C81.4814 125.648 81.8654 126.068 82.3574 126.38C82.8494 126.692 83.4194 126.848 84.0674 126.848C84.4874 126.848 84.8234 126.812 85.0754 126.74C85.3274 126.668 85.5374 126.584 85.7054 126.488C85.9214 126.368 86.0834 126.248 86.1914 126.128C86.3114 126.008 86.4674 125.948 86.6594 125.948C86.8634 125.948 87.0194 126.014 87.1274 126.146C87.2474 126.278 87.3074 126.44 87.3074 126.632C87.3074 126.848 87.1574 127.076 86.8574 127.316C86.5574 127.556 86.1494 127.76 85.6334 127.928C85.1294 128.096 84.5534 128.18 83.9054 128.18C82.9934 128.18 82.1954 127.97 81.5114 127.55C80.8274 127.118 80.2934 126.536 79.9094 125.804C79.5374 125.06 79.3514 124.232 79.3514 123.32C79.3514 122.408 79.5434 121.586 79.9274 120.854C80.3234 120.122 80.8694 119.54 81.5654 119.108C82.2614 118.676 83.0714 118.46 83.9954 118.46ZM88.8294 118.748H93.0594C93.2514 118.748 93.4074 118.814 93.5274 118.946C93.6594 119.078 93.7254 119.234 93.7254 119.414C93.7254 119.606 93.6594 119.768 93.5274 119.9C93.4074 120.02 93.2514 120.08 93.0594 120.08H88.8294C88.6494 120.08 88.4934 120.014 88.3614 119.882C88.2294 119.75 88.1634 119.588 88.1634 119.396C88.1634 119.216 88.2294 119.066 88.3614 118.946C88.4934 118.814 88.6494 118.748 88.8294 118.748ZM90.7194 116.3C90.9234 116.3 91.0914 116.372 91.2234 116.516C91.3554 116.648 91.4214 116.816 91.4214 117.02V125.714C91.4214 126.002 91.4634 126.218 91.5474 126.362C91.6314 126.506 91.7394 126.608 91.8714 126.668C92.0154 126.716 92.1534 126.74 92.2854 126.74C92.4054 126.74 92.5074 126.722 92.5914 126.686C92.6874 126.638 92.7954 126.614 92.9154 126.614C93.0354 126.614 93.1434 126.674 93.2394 126.794C93.3474 126.902 93.4014 127.046 93.4014 127.226C93.4014 127.442 93.2754 127.628 93.0234 127.784C92.7714 127.928 92.4894 128 92.1774 128C92.0094 128 91.7994 127.988 91.5474 127.964C91.3074 127.94 91.0674 127.862 90.8274 127.73C90.5874 127.598 90.3834 127.382 90.2154 127.082C90.0594 126.77 89.9814 126.338 89.9814 125.786V117.02C89.9814 116.816 90.0534 116.648 90.1974 116.516C90.3414 116.372 90.5154 116.3 90.7194 116.3ZM97.1145 127.262C97.1145 127.466 97.0425 127.64 96.8985 127.784C96.7665 127.928 96.5985 128 96.3945 128C96.1785 128 96.0045 127.928 95.8725 127.784C95.7405 127.64 95.6745 127.466 95.6745 127.262V119.27C95.6745 119.066 95.7405 118.898 95.8725 118.766C96.0165 118.622 96.1905 118.55 96.3945 118.55C96.5985 118.55 96.7665 118.622 96.8985 118.766C97.0425 118.898 97.1145 119.066 97.1145 119.27V127.262ZM96.3945 117.344C96.0945 117.344 95.8725 117.284 95.7285 117.164C95.5845 117.044 95.5125 116.858 95.5125 116.606V116.354C95.5125 116.102 95.5905 115.916 95.7465 115.796C95.9025 115.676 96.1245 115.616 96.4125 115.616C96.7005 115.616 96.9165 115.676 97.0605 115.796C97.2045 115.916 97.2765 116.102 97.2765 116.354V116.606C97.2765 116.858 97.1985 117.044 97.0425 117.164C96.8985 117.284 96.6825 117.344 96.3945 117.344ZM108.539 123.32C108.539 124.256 108.329 125.09 107.909 125.822C107.501 126.554 106.943 127.13 106.235 127.55C105.539 127.97 104.753 128.18 103.877 128.18C103.001 128.18 102.209 127.97 101.501 127.55C100.793 127.13 100.229 126.554 99.8091 125.822C99.4011 125.09 99.1971 124.256 99.1971 123.32C99.1971 122.384 99.4011 121.55 99.8091 120.818C100.229 120.086 100.793 119.51 101.501 119.09C102.209 118.67 103.001 118.46 103.877 118.46C104.753 118.46 105.539 118.67 106.235 119.09C106.943 119.51 107.501 120.086 107.909 120.818C108.329 121.55 108.539 122.384 108.539 123.32ZM107.099 123.32C107.099 122.624 106.955 122.012 106.667 121.484C106.391 120.956 106.007 120.542 105.515 120.242C105.035 119.942 104.489 119.792 103.877 119.792C103.265 119.792 102.713 119.942 102.221 120.242C101.741 120.542 101.357 120.956 101.069 121.484C100.781 122.012 100.637 122.624 100.637 123.32C100.637 124.004 100.781 124.61 101.069 125.138C101.357 125.666 101.741 126.086 102.221 126.398C102.713 126.698 103.265 126.848 103.877 126.848C104.489 126.848 105.035 126.698 105.515 126.398C106.007 126.086 106.391 125.666 106.667 125.138C106.955 124.61 107.099 124.004 107.099 123.32ZM115.331 118.46C116.147 118.46 116.789 118.628 117.257 118.964C117.725 119.3 118.055 119.75 118.247 120.314C118.451 120.878 118.553 121.508 118.553 122.204V127.262C118.553 127.466 118.481 127.64 118.337 127.784C118.205 127.928 118.037 128 117.833 128C117.629 128 117.455 127.928 117.311 127.784C117.179 127.64 117.113 127.466 117.113 127.262V122.24C117.113 121.784 117.041 121.376 116.897 121.016C116.765 120.644 116.537 120.35 116.213 120.134C115.901 119.906 115.469 119.792 114.917 119.792C114.413 119.792 113.951 119.906 113.531 120.134C113.111 120.35 112.775 120.644 112.523 121.016C112.271 121.376 112.145 121.784 112.145 122.24V127.262C112.145 127.466 112.073 127.64 111.929 127.784C111.797 127.928 111.629 128 111.425 128C111.221 128 111.047 127.928 110.903 127.784C110.771 127.64 110.705 127.466 110.705 127.262V119.414C110.705 119.21 110.771 119.042 110.903 118.91C111.047 118.766 111.221 118.694 111.425 118.694C111.641 118.694 111.815 118.766 111.947 118.91C112.079 119.042 112.145 119.21 112.145 119.414V120.692L111.785 121.088C111.845 120.776 111.983 120.464 112.199 120.152C112.415 119.828 112.685 119.54 113.009 119.288C113.333 119.036 113.693 118.838 114.089 118.694C114.485 118.538 114.899 118.46 115.331 118.46ZM120.695 126.524C120.587 126.368 120.539 126.206 120.551 126.038C120.563 125.858 120.665 125.702 120.857 125.57C120.977 125.486 121.115 125.45 121.271 125.462C121.439 125.474 121.589 125.552 121.721 125.696C122.057 126.092 122.441 126.41 122.873 126.65C123.305 126.878 123.833 126.992 124.457 126.992C124.745 126.98 125.033 126.932 125.321 126.848C125.609 126.764 125.849 126.62 126.041 126.416C126.245 126.2 126.347 125.918 126.347 125.57C126.347 125.234 126.245 124.97 126.041 124.778C125.837 124.574 125.573 124.412 125.249 124.292C124.925 124.16 124.571 124.046 124.187 123.95C123.791 123.842 123.401 123.722 123.017 123.59C122.633 123.446 122.285 123.272 121.973 123.068C121.673 122.852 121.427 122.588 121.235 122.276C121.055 121.952 120.965 121.562 120.965 121.106C120.965 120.566 121.109 120.098 121.397 119.702C121.697 119.306 122.093 119 122.585 118.784C123.089 118.568 123.635 118.46 124.223 118.46C124.559 118.46 124.907 118.502 125.267 118.586C125.639 118.658 125.999 118.79 126.347 118.982C126.695 119.162 127.001 119.414 127.265 119.738C127.373 119.858 127.433 120.008 127.445 120.188C127.457 120.368 127.379 120.53 127.211 120.674C127.079 120.77 126.929 120.812 126.761 120.8C126.605 120.788 126.473 120.728 126.365 120.62C126.113 120.32 125.795 120.092 125.411 119.936C125.039 119.768 124.625 119.684 124.169 119.684C123.881 119.684 123.599 119.726 123.323 119.81C123.047 119.894 122.813 120.038 122.621 120.242C122.441 120.434 122.351 120.704 122.351 121.052C122.363 121.376 122.471 121.64 122.675 121.844C122.879 122.048 123.155 122.216 123.503 122.348C123.851 122.468 124.235 122.588 124.655 122.708C125.039 122.804 125.405 122.918 125.753 123.05C126.113 123.17 126.437 123.332 126.725 123.536C127.013 123.74 127.241 124.004 127.409 124.328C127.577 124.64 127.661 125.036 127.661 125.516C127.661 126.068 127.505 126.548 127.193 126.956C126.881 127.352 126.467 127.658 125.951 127.874C125.447 128.078 124.901 128.18 124.313 128.18C123.653 128.18 122.999 128.054 122.351 127.802C121.715 127.55 121.163 127.124 120.695 126.524Z" fill="white"/>
<defs>
<clipPath id="clip0_4123_235">
<rect width="80" height="80" fill="white" transform="translate(26.5)"/>
</clipPath>
</defs>
</svg>
