<svg width="71" height="105" viewBox="0 0 71 105" fill="none" xmlns="http://www.w3.org/2000/svg">
<path d="M6.38095 72L0 0H70.5714L64.1905 72L35.3333 80L6.57143 72H6.38095Z" fill="#264DE4"/>
<path d="M58.5579 67.4364L64.0818 5.9126H35.2246V73.9126L58.5579 67.4364Z" fill="#2965F1"/>
<path d="M14.6483 32.561L15.4102 41.4182H35.1245V32.561H14.5531H14.6483ZM13.8864 23.5134H35.2198V14.6562H13.0293L13.7912 23.5134H13.8864ZM35.2198 55.5134L25.4102 52.8467L24.7436 45.7991H15.8864L17.1245 59.7039L35.2198 64.7515V55.5134Z" fill="#EBEBEB"/>
<path d="M35.2246 32.5767V41.4338H46.0818L45.0341 52.8624L35.2246 55.529V64.6719L53.3198 59.6243V58.1005C53.4151 58.1005 55.5103 34.8624 55.5103 34.8624L55.7008 32.4814L57.3198 14.5767H35.2246V23.4338H47.7008L46.9389 32.4814H35.3198L35.2246 32.5767Z" fill="white"/>
<path d="M26.7339 103.141C25.8315 103.141 24.979 102.977 24.1763 102.648C23.3794 102.32 22.6733 101.857 22.0581 101.26C21.4487 100.662 20.9683 99.959 20.6167 99.1504C20.271 98.3418 20.0981 97.4629 20.0981 96.5137C20.0981 95.5469 20.2739 94.6621 20.6255 93.8594C20.9829 93.0508 21.4692 92.3506 22.0845 91.7588C22.6997 91.167 23.4058 90.71 24.2026 90.3877C25.0054 90.0654 25.8521 89.9043 26.7427 89.9043C27.4634 89.9043 28.1694 90.0068 28.8608 90.2119C29.5522 90.417 30.1616 90.71 30.689 91.0908L29.9946 92.752C29.6255 92.3887 29.1509 92.1074 28.5708 91.9082C27.9907 91.709 27.3931 91.6094 26.7778 91.6094C26.1626 91.6094 25.5679 91.7266 24.9937 91.9609C24.4194 92.1953 23.9038 92.5293 23.4468 92.9629C22.9897 93.3906 22.6294 93.9033 22.3657 94.501C22.1021 95.0928 21.9702 95.752 21.9702 96.4785C21.9702 97.1816 22.0933 97.835 22.3394 98.4385C22.5913 99.042 22.9399 99.5693 23.3853 100.021C23.8364 100.466 24.3521 100.814 24.9321 101.066C25.5122 101.312 26.1333 101.436 26.7954 101.436C27.2056 101.436 27.6128 101.389 28.0171 101.295C28.4272 101.195 28.8052 101.055 29.1509 100.873C29.5024 100.691 29.7954 100.475 30.0298 100.223L30.7241 101.866C30.1968 102.265 29.5786 102.578 28.8696 102.807C28.1665 103.029 27.4546 103.141 26.7339 103.141ZM36.1118 103.141C35.4087 103.141 34.7583 103 34.1606 102.719C33.563 102.432 33.0532 102.06 32.6313 101.603C32.2153 101.146 31.9224 100.659 31.7524 100.144L33.5103 99.4053C33.6216 99.7568 33.7974 100.088 34.0376 100.398C34.2778 100.703 34.5708 100.952 34.9165 101.146C35.2681 101.339 35.6577 101.436 36.0854 101.436C36.478 101.436 36.8413 101.351 37.1753 101.181C37.5093 101.011 37.7788 100.779 37.9839 100.486C38.1948 100.188 38.3003 99.8447 38.3003 99.458C38.3003 99.0654 38.1948 98.7314 37.9839 98.4561C37.7788 98.1748 37.521 97.9404 37.2104 97.7529C36.8999 97.5654 36.5864 97.416 36.27 97.3047C35.9595 97.1875 35.6987 97.0908 35.4878 97.0146C34.9077 96.8154 34.3657 96.5576 33.8618 96.2412C33.3579 95.9189 32.9507 95.5146 32.6401 95.0283C32.3296 94.542 32.1743 93.9502 32.1743 93.2529C32.1743 92.5732 32.3296 91.9844 32.6401 91.4863C32.9507 90.9824 33.3843 90.5928 33.9409 90.3174C34.5034 90.042 35.1509 89.9043 35.8833 89.9043C36.5688 89.9043 37.1665 90.0156 37.6763 90.2383C38.186 90.4609 38.6138 90.7539 38.9595 91.1172C39.311 91.4805 39.5806 91.873 39.7681 92.2949L38.0806 92.9717C37.981 92.7842 37.8345 92.585 37.6411 92.374C37.4478 92.1572 37.2046 91.9756 36.9116 91.8291C36.6187 91.6768 36.2817 91.6006 35.9009 91.6006C35.4087 91.6006 34.9692 91.7412 34.5825 92.0225C34.2017 92.3037 34.0112 92.7227 34.0112 93.2793C34.0112 93.6367 34.0933 93.9443 34.2573 94.2021C34.4272 94.4541 34.6411 94.6709 34.8989 94.8525C35.1626 95.0283 35.4351 95.1777 35.7163 95.3008C36.0034 95.418 36.2642 95.5176 36.4985 95.5996C36.7681 95.6875 37.105 95.8164 37.5093 95.9863C37.9136 96.1504 38.3149 96.376 38.7134 96.6631C39.1118 96.9502 39.4487 97.3164 39.7241 97.7617C39.9995 98.207 40.1372 98.7549 40.1372 99.4053C40.1372 100.138 39.9526 100.785 39.5835 101.348C39.2144 101.91 38.7222 102.35 38.1069 102.666C37.4976 102.982 36.8325 103.141 36.1118 103.141ZM46.2192 103.141C45.5161 103.141 44.8657 103 44.2681 102.719C43.6704 102.432 43.1606 102.06 42.7388 101.603C42.3228 101.146 42.0298 100.659 41.8599 100.144L43.6177 99.4053C43.729 99.7568 43.9048 100.088 44.145 100.398C44.3853 100.703 44.6782 100.952 45.0239 101.146C45.3755 101.339 45.7651 101.436 46.1929 101.436C46.5854 101.436 46.9487 101.351 47.2827 101.181C47.6167 101.011 47.8862 100.779 48.0913 100.486C48.3022 100.188 48.4077 99.8447 48.4077 99.458C48.4077 99.0654 48.3022 98.7314 48.0913 98.4561C47.8862 98.1748 47.6284 97.9404 47.3179 97.7529C47.0073 97.5654 46.6938 97.416 46.3774 97.3047C46.0669 97.1875 45.8062 97.0908 45.5952 97.0146C45.0151 96.8154 44.4731 96.5576 43.9692 96.2412C43.4653 95.9189 43.0581 95.5146 42.7476 95.0283C42.437 94.542 42.2817 93.9502 42.2817 93.2529C42.2817 92.5732 42.437 91.9844 42.7476 91.4863C43.0581 90.9824 43.4917 90.5928 44.0483 90.3174C44.6108 90.042 45.2583 89.9043 45.9907 89.9043C46.6763 89.9043 47.2739 90.0156 47.7837 90.2383C48.2935 90.4609 48.7212 90.7539 49.0669 91.1172C49.4185 91.4805 49.688 91.873 49.8755 92.2949L48.188 92.9717C48.0884 92.7842 47.9419 92.585 47.7485 92.374C47.5552 92.1572 47.312 91.9756 47.019 91.8291C46.7261 91.6768 46.3892 91.6006 46.0083 91.6006C45.5161 91.6006 45.0767 91.7412 44.6899 92.0225C44.3091 92.3037 44.1187 92.7227 44.1187 93.2793C44.1187 93.6367 44.2007 93.9443 44.3647 94.2021C44.5347 94.4541 44.7485 94.6709 45.0063 94.8525C45.27 95.0283 45.5425 95.1777 45.8237 95.3008C46.1108 95.418 46.3716 95.5176 46.606 95.5996C46.8755 95.6875 47.2124 95.8164 47.6167 95.9863C48.021 96.1504 48.4224 96.376 48.8208 96.6631C49.2192 96.9502 49.5562 97.3164 49.8315 97.7617C50.1069 98.207 50.2446 98.7549 50.2446 99.4053C50.2446 100.138 50.0601 100.785 49.6909 101.348C49.3218 101.91 48.8296 102.35 48.2144 102.666C47.605 102.982 46.9399 103.141 46.2192 103.141Z" fill="white"/>
</svg>
