<svg width="71" height="105" viewBox="0 0 71 105" fill="none" xmlns="http://www.w3.org/2000/svg">
<path d="M6.38095 72L0 0H70.5714L64.1905 72L35.2381 80" fill="#E44D26"/>
<path d="M35.2383 73.8994V5.89941H64.0954L58.5716 67.328" fill="#F16529"/>
<path d="M13.0557 14.7617H35.2461V23.6189H22.77L23.6271 32.6665H35.3414V41.4284H15.6271M15.9128 45.8093H24.77L25.4366 52.857L35.3414 55.5236V64.7617L17.2461 59.7141" fill="#EBEBEB"/>
<path d="M57.336 14.7617H35.2407V23.6189H56.5741M55.7169 32.5712H35.2407V41.4284H46.0979L45.0503 52.857L35.1455 55.5236V64.6665L53.2407 59.6189" fill="white"/>
<path d="M13.2271 105V92.0449H15.0903V97.5469H21.4536V92.0449H23.3257V105H21.4536V99.2344H15.0903V105H13.2271ZM28.6343 105V93.416H30.4976V105H28.6343ZM25.2417 93.7412V92.0449H33.8813V93.7412H25.2417ZM35.8149 105V92.0449H37.3091L41.8003 99.6475H41.8706L46.3618 92.0449H47.8647V105H45.9927V98.5928L46.0366 95.8242H45.9663L42.1167 102.451H41.5542L37.7134 95.8242H37.6431L37.6782 98.5928V105H35.8149ZM50.7388 105V92.0449H52.6021V103.304H57.8931V105H50.7388Z" fill="white"/>
</svg>
